<?xml version="1.0" encoding="UTF-8" standalone="no"?>
<svg
   xmlns:dc="http://purl.org/dc/elements/1.1/"
   xmlns:cc="http://creativecommons.org/ns#"
   xmlns:rdf="http://www.w3.org/1999/02/22-rdf-syntax-ns#"
   xmlns:svg="http://www.w3.org/2000/svg"
   xmlns="http://www.w3.org/2000/svg"
   xmlns:sodipodi="http://sodipodi.sourceforge.net/DTD/sodipodi-0.dtd"
   xmlns:inkscape="http://www.inkscape.org/namespaces/inkscape"
   id="svg3731"
   version="1.1"
   viewBox="0 0 26.458333 26.458334"
   height="100"
   width="100"
   sodipodi:docname="wcrmlogo42.svg"
   inkscape:version="0.92.2 (5c3e80d, 2017-08-06)">
  <sodipodi:namedview
     pagecolor="#ffffff"
     bordercolor="#666666"
     borderopacity="1"
     objecttolerance="10"
     gridtolerance="10"
     guidetolerance="10"
     inkscape:pageopacity="0"
     inkscape:pageshadow="2"
     inkscape:window-width="1920"
     inkscape:window-height="1018"
     id="namedview19"
     showgrid="false"
     units="px"
     inkscape:zoom="4.7572176"
     inkscape:cx="15.300894"
     inkscape:cy="22.695794"
     inkscape:window-x="-8"
     inkscape:window-y="-8"
     inkscape:window-maximized="1"
     inkscape:current-layer="svg3731" />
  <defs
     id="defs3725" />
  <metadata
     id="metadata3728">
    <rdf:RDF>
      <cc:Work
         rdf:about="">
        <dc:format>image/svg+xml</dc:format>
        <dc:type
           rdf:resource="http://purl.org/dc/dcmitype/StillImage" />
        <dc:title></dc:title>
      </cc:Work>
    </rdf:RDF>
  </metadata>
  <g
     id="layer1"
     transform="translate(0,-270.54164)" />
  <g
     id="layer2"
     transform="matrix(0.22413611,0,0,0.22144291,-10.463249,-20.676987)">
    <path
       id="path3745"
       d="m 152.55137,169.11299 c -3.95558,6.13503 -9.59081,11.17524 -16.12742,14.42453 -6.53661,3.24929 -13.95675,4.69879 -21.23563,4.14831 -7.27889,-0.55048 -14.39664,-3.09944 -20.370228,-7.29484 -5.97359,-4.1954 -10.786712,-10.02579 -13.774627,-16.68593 -2.009688,-4.47965 -3.20366,-9.34341 -3.309322,-14.25207 -0.105663,-4.90866 0.8916,-9.85909 3.05779,-14.26519 3.9326,-7.99904 11.827113,-13.92653 20.605667,-15.47151 8.77855,-1.54497 18.22244,1.33106 24.64972,7.50682 -7.23596,-5.05461 -16.00524,-7.8824 -24.83093,-8.00713 -8.825681,-0.12472 -17.671366,2.45414 -25.047276,7.30225 -6.834799,4.49245 -12.396518,10.92318 -15.765643,18.37607 -4.482939,9.91677 -4.962016,21.53212 -1.539532,31.86293 3.422484,10.33081 10.668576,19.30421 19.920736,25.03454 9.252159,5.73032 20.426586,8.21843 31.261795,7.19993 10.83521,-1.01849 21.28286,-5.49992 29.6495,-12.45969 10.57542,-8.79715 17.7655,-21.5657 19.80441,-35.16983"
       style="fill:#e5254d;fill-opacity:1;stroke:none;stroke-width:0.26458332px;stroke-linecap:butt;stroke-linejoin:miter;stroke-opacity:1"
       inkscape:connector-curvature="0" />
    <path
       style="fill:#0070a7;fill-opacity:1;stroke:none;stroke-width:0.26458332px;stroke-linecap:butt;stroke-linejoin:miter;stroke-opacity:1"
       d="m 71.278945,196.03183 c -9.333519,-11.55908 -12.796024,-27.62642 -9.051791,-42.00375 3.744234,-14.37733 14.604087,-26.71475 28.390167,-32.25288 4.832645,-1.94136 10.155809,-3.08745 15.264689,-2.07615 3.39896,0.67282 6.54658,2.26656 9.50659,4.06765 2.96002,1.8011 5.78435,3.82767 8.82627,5.48669 3.04192,1.65903 6.35741,2.95632 9.81738,3.14136 1.72999,0.0925 3.48233,-0.0981 5.1274,-0.64139 1.64508,-0.54325 3.1807,-1.44478 4.39888,-2.67663 1.66264,-1.68129 2.68934,-3.94542 3.01184,-6.28788 0.3225,-2.34245 -0.0392,-4.75552 -0.8893,-6.96198 -1.70015,-4.41293 -5.24357,-7.88357 -9.1217,-10.58996 -7.8847,-5.502411 -17.49036,-8.355056 -27.10158,-8.618693 -11.926717,-0.327152 -23.922759,3.315369 -33.676976,10.186243 -9.754218,6.87086 -17.217735,16.92763 -21.006267,28.24137 -3.242426,9.68289 -3.806476,20.24767 -1.613476,30.22076 2.193,9.97308 7.136939,19.3267 14.14224,26.7562"
       id="path4564"
       inkscape:connector-curvature="0" />
    <g
       transform="scale(0)"
       id="g4633">
      <path
         id="path4635"
         d="m 104.16406,95.685547 c -8.910222,0.688751 -16.490453,6.078583 -23.671679,10.927973 -17.600605,12.61044 -29.894597,32.90688 -31.172069,54.6521 -0.385226,5.43282 -0.158427,10.91088 0.689454,16.2461 1.671619,-22.70937 15.947475,-43.92415 36.401984,-53.95469 7.575882,-4.39638 16.90491,-4.6959 24.00231,-9.94375 4.75278,-3.24852 7.06504,-11.00998 2.24414,-15.208983 -2.29154,-2.052214 -5.48156,-2.80294 -8.49414,-2.71875 z"
         style="opacity:0.09090899;fill:#e5254d;fill-opacity:1;stroke:none;stroke-width:0.26458332px;stroke-linecap:butt;stroke-linejoin:miter;stroke-opacity:1"
         inkscape:connector-curvature="0" />
      <path
         id="path4640"
         d="m 104.1582,95.585938 c -8.208874,0.524679 -15.267693,5.389942 -21.984372,9.699222 -17.387395,11.89038 -30.152333,30.97069 -32.559947,52.00645 -0.884865,7.00499 -0.757243,14.09154 0.434947,21.05995 1.335196,-21.33502 13.714009,-41.59339 32.189792,-52.38638 6.800949,-4.32172 14.615325,-6.43788 22.185,-8.94013 5.78695,-2.02017 11.86737,-7.12789 10.92013,-13.88638 -0.7373,-5.291025 -6.38742,-7.810658 -11.18555,-7.552732 z"
         style="opacity:0.09090899;fill:#e5254d;fill-opacity:1;stroke:none;stroke-width:0.26458332px;stroke-linecap:butt;stroke-linejoin:miter;stroke-opacity:1"
         inkscape:connector-curvature="0" />
      <path
         id="path4645"
         d="m 104.14453,95.486328 c -7.383058,0.39177 -13.899986,4.615802 -20.048364,8.386792 -16.66886,10.7877 -29.628971,27.93689 -33.58967,47.51459 -1.929399,9.13684 -2.091961,18.65668 -0.412746,27.78417 1.044323,-19.89209 11.581965,-39.05201 27.99557,-50.39212 7.100766,-5.14097 15.326822,-8.40843 23.72872,-10.72886 5.66744,-1.70586 11.92709,-5.07049 13.47102,-11.29309 1.26277,-4.39293 -1.55018,-9.185279 -5.87353,-10.480025 -1.66719,-0.609237 -3.48909,-0.839553 -5.271,-0.791457 z"
         style="opacity:0.09090899;fill:#e5254d;fill-opacity:1;stroke:none;stroke-width:0.26458332px;stroke-linecap:butt;stroke-linejoin:miter;stroke-opacity:1"
         inkscape:connector-curvature="0" />
      <path
         id="path4650"
         d="m 104.15039,95.384766 c -6.691928,0.287799 -12.647416,3.927719 -18.301741,7.251614 -15.594514,9.6268 -28.261136,24.48117 -33.707928,42.11696 -3.556879,11.33888 -4.273799,23.60824 -1.988377,35.28377 0.758402,-18.64035 9.79129,-36.79548 24.384749,-48.44908 7.482605,-6.12923 16.353455,-10.42171 25.679027,-12.925 5.34354,-1.57139 11.1268,-3.89448 14.03193,-8.9853 2.22864,-3.67526 1.85849,-9.01731 -1.68759,-11.749289 -2.3301,-1.920356 -5.44443,-2.622047 -8.41007,-2.543675 z"
         style="opacity:0.09090899;fill:#e5254d;fill-opacity:1;stroke:none;stroke-width:0.26458332px;stroke-linecap:butt;stroke-linejoin:miter;stroke-opacity:1"
         inkscape:connector-curvature="0" />
      <path
         id="path4655"
         d="m 104.14453,95.285156 c -5.587632,0.189256 -10.654156,2.882798 -15.433772,5.534524 -13.719047,7.7827 -25.436296,19.37235 -32.50438,33.55155 -7.105152,14.25627 -9.231335,30.91557 -5.985675,46.50572 0.492052,-16.69376 7.557202,-33.1289 19.486328,-44.83398 7.929601,-7.84995 17.866432,-13.65172 28.603125,-16.69828 4.693784,-1.4061 9.608084,-2.83296 13.303124,-6.2275 2.92458,-2.61583 4.81813,-6.68364 3.91173,-10.62429 -0.72224,-3.461914 -3.81664,-5.940159 -7.13963,-6.745847 -1.36891,-0.359058 -2.81344,-0.499256 -4.24085,-0.461897 z"
         style="opacity:0.09090899;fill:#e5254d;fill-opacity:1;stroke:none;stroke-width:0.26458332px;stroke-linecap:butt;stroke-linejoin:miter;stroke-opacity:1"
         inkscape:connector-curvature="0" />
      <path
         id="path4660"
         d="m 104.13867,95.085938 c -5.552926,0.179967 -10.598068,2.835206 -15.354203,5.460112 -13.913402,7.85573 -25.797567,19.61283 -32.888652,34.00724 -7.148598,14.48601 -9.174481,31.42535 -5.694643,47.20062 0.33113,0.4929 0.168065,-0.9492 0.230469,-1.28907 0.598175,-16.37004 7.510954,-32.46665 19.156492,-44.01864 7.970276,-7.98757 18.023322,-13.87569 28.886476,-16.94229 4.774341,-1.42514 9.806161,-2.91588 13.490171,-6.44767 2.86074,-2.64218 4.66432,-6.73001 3.74811,-10.63241 -0.69948,-3.289431 -3.51772,-5.762682 -6.65872,-6.691202 -1.58406,-0.501948 -3.25637,-0.689534 -4.9155,-0.64669 z"
         style="opacity:0.09090899;fill:#e5254d;fill-opacity:1;stroke:none;stroke-width:0.26458332px;stroke-linecap:butt;stroke-linejoin:miter;stroke-opacity:1"
         inkscape:connector-curvature="0" />
      <path
         id="path4665"
         d="m 104.13867,95.085938 c -5.552926,0.179967 -10.598068,2.835206 -15.354203,5.460112 -13.913402,7.85573 -25.797567,19.61283 -32.888652,34.00724 -7.148598,14.48601 -9.174481,31.42535 -5.694643,47.20062 0.33113,0.4929 0.168065,-0.9492 0.230469,-1.28907 0.598175,-16.37004 7.510954,-32.46665 19.156492,-44.01864 7.970276,-7.98757 18.023322,-13.87569 28.886476,-16.94229 4.774341,-1.42514 9.806161,-2.91588 13.490171,-6.44767 2.86074,-2.64218 4.66432,-6.73001 3.74811,-10.63241 -0.69948,-3.289431 -3.51772,-5.762682 -6.65872,-6.691202 -1.58406,-0.501948 -3.25637,-0.689534 -4.9155,-0.64669 z"
         style="opacity:0.09090899;fill:#e5254d;fill-opacity:1;stroke:none;stroke-width:0.26458332px;stroke-linecap:butt;stroke-linejoin:miter;stroke-opacity:1"
         inkscape:connector-curvature="0" />
      <path
         id="path4670"
         d="m 50.298287,181.73291 c 0.231907,-13.56209 4.78184,-27.01797 12.828151,-37.93772 8.046311,-10.91975 19.550598,-19.25125 32.435369,-23.48997 3.820898,-1.25697 7.779453,-2.17267 11.389283,-3.94703 3.02647,-1.48761 5.82776,-3.64391 7.47455,-6.5868 0.8234,-1.47144 1.34197,-3.1237 1.41871,-4.80811 0.0767,-1.6844 -0.29805,-3.39899 -1.147,-4.85584 -0.72032,-1.236109 -1.7683,-2.268568 -2.97443,-3.038043 -1.20612,-0.769474 -2.56751,-1.280818 -3.96774,-1.574395 -2.71673,-0.569601 -5.55964,-0.323367 -8.243003,0.386999 -2.683367,0.710366 -5.22558,1.872343 -7.694175,3.141641 C 76.223967,107.04176 62.913554,119.8505 55.442721,135.714 c -6.696343,14.21896 -8.535651,30.67227 -5.144434,46.01891"
         style="opacity:0.09090899;fill:#e5254d;fill-opacity:1;stroke:none;stroke-width:0.26458332px;stroke-linecap:butt;stroke-linejoin:miter;stroke-opacity:1"
         inkscape:connector-curvature="0" />
    </g>
  </g>
  <g
     id="layer3"
     transform="translate(0,-270.54164)" />
</svg>
